<svg width="24" height="20" viewBox="0 0 24 20" fill="none" xmlns="http://www.w3.org/2000/svg">
<path d="M20.47 3.62999C20.86 4.01999 20.86 4.63999 20.47 5.02999L9.13 16.37C8.74 16.76 8.12 16.76 7.73 16.37L3.53 12.17C3.14 11.78 3.14 11.16 3.53 10.77C3.92 10.38 4.54 10.38 4.93 10.77L8.43 14.27L19.07 3.62999C19.46 3.23999 20.08 3.23999 20.47 3.62999ZM18.36 1.50999L8.43 11.44L5.64 8.64999C4.86 7.86999 3.59 7.86999 2.81 8.64999L1.41 10.05C0.629997 10.83 0.629997 12.1 1.41 12.88L7.01 18.48C7.79 19.26 9.06 19.26 9.84 18.48L22.59 5.73999C23.37 4.95999 23.37 3.68999 22.59 2.90999L21.19 1.50999C20.4 0.729988 19.14 0.729988 18.36 1.50999Z" fill="#323232"/>
</svg>
